<mxfile host="app.diagrams.net" modified="2024-01-04T06:42:16.703Z" agent="Mozilla/5.0 (Macintosh; Intel Mac OS X 10_15_7) AppleWebKit/605.1.15 (KHTML, like Gecko) Version/17.0 Safari/605.1.15" etag="iaLXfXQx180TfMQLq5AV" version="22.1.16" type="github">
  <diagram name="Page-1" id="AIWmbNHkeYZJRAOS6WOl">
    <mxGraphModel dx="643" dy="448" grid="1" gridSize="10" guides="1" tooltips="1" connect="1" arrows="1" fold="1" page="1" pageScale="1" pageWidth="827" pageHeight="1169" math="0" shadow="0">
      <root>
        <mxCell id="0" />
        <mxCell id="1" parent="0" />
        <mxCell id="dQS0lUU22sCcIDMKFVP6-12" style="edgeStyle=orthogonalEdgeStyle;rounded=0;orthogonalLoop=1;jettySize=auto;html=1;exitX=1;exitY=0.25;exitDx=0;exitDy=0;entryX=0;entryY=0.25;entryDx=0;entryDy=0;dashed=1;endArrow=block;endFill=1;fillColor=#ffe6cc;strokeColor=#d79b00;" edge="1" parent="1" source="dQS0lUU22sCcIDMKFVP6-1" target="dQS0lUU22sCcIDMKFVP6-5">
          <mxGeometry relative="1" as="geometry" />
        </mxCell>
        <mxCell id="dQS0lUU22sCcIDMKFVP6-1" value="Model" style="rounded=0;whiteSpace=wrap;html=1;fillColor=#ffe6cc;strokeColor=#d79b00;" vertex="1" parent="1">
          <mxGeometry x="140" y="180" width="120" height="60" as="geometry" />
        </mxCell>
        <mxCell id="dQS0lUU22sCcIDMKFVP6-2" value="MVC" style="text;html=1;strokeColor=none;fillColor=none;align=center;verticalAlign=middle;whiteSpace=wrap;rounded=0;" vertex="1" parent="1">
          <mxGeometry x="384" y="120" width="60" height="30" as="geometry" />
        </mxCell>
        <mxCell id="dQS0lUU22sCcIDMKFVP6-3" value="MVVM" style="text;html=1;strokeColor=none;fillColor=none;align=center;verticalAlign=middle;whiteSpace=wrap;rounded=0;" vertex="1" parent="1">
          <mxGeometry x="384" y="370" width="60" height="30" as="geometry" />
        </mxCell>
        <mxCell id="dQS0lUU22sCcIDMKFVP6-10" style="edgeStyle=orthogonalEdgeStyle;rounded=0;orthogonalLoop=1;jettySize=auto;html=1;exitX=1;exitY=0.75;exitDx=0;exitDy=0;entryX=0;entryY=0.75;entryDx=0;entryDy=0;fillColor=#dae8fc;strokeColor=#6c8ebf;" edge="1" parent="1" source="dQS0lUU22sCcIDMKFVP6-5" target="dQS0lUU22sCcIDMKFVP6-6">
          <mxGeometry relative="1" as="geometry" />
        </mxCell>
        <mxCell id="dQS0lUU22sCcIDMKFVP6-11" style="edgeStyle=orthogonalEdgeStyle;rounded=0;orthogonalLoop=1;jettySize=auto;html=1;exitX=0;exitY=0.75;exitDx=0;exitDy=0;entryX=1;entryY=0.75;entryDx=0;entryDy=0;fillColor=#dae8fc;strokeColor=#6c8ebf;" edge="1" parent="1" source="dQS0lUU22sCcIDMKFVP6-5" target="dQS0lUU22sCcIDMKFVP6-1">
          <mxGeometry relative="1" as="geometry" />
        </mxCell>
        <mxCell id="dQS0lUU22sCcIDMKFVP6-5" value="ViewController" style="rounded=0;whiteSpace=wrap;html=1;fillColor=#dae8fc;strokeColor=#6c8ebf;" vertex="1" parent="1">
          <mxGeometry x="354" y="180" width="120" height="60" as="geometry" />
        </mxCell>
        <mxCell id="dQS0lUU22sCcIDMKFVP6-13" style="edgeStyle=orthogonalEdgeStyle;rounded=0;orthogonalLoop=1;jettySize=auto;html=1;exitX=0;exitY=0.25;exitDx=0;exitDy=0;entryX=1;entryY=0.25;entryDx=0;entryDy=0;dashed=1;endArrow=block;endFill=1;fillColor=#d5e8d4;strokeColor=#82b366;" edge="1" parent="1" source="dQS0lUU22sCcIDMKFVP6-6" target="dQS0lUU22sCcIDMKFVP6-5">
          <mxGeometry relative="1" as="geometry" />
        </mxCell>
        <mxCell id="dQS0lUU22sCcIDMKFVP6-6" value="View" style="rounded=0;whiteSpace=wrap;html=1;fillColor=#d5e8d4;strokeColor=#82b366;" vertex="1" parent="1">
          <mxGeometry x="590" y="180" width="120" height="60" as="geometry" />
        </mxCell>
        <mxCell id="dQS0lUU22sCcIDMKFVP6-18" style="edgeStyle=orthogonalEdgeStyle;rounded=0;orthogonalLoop=1;jettySize=auto;html=1;exitX=1;exitY=0.25;exitDx=0;exitDy=0;entryX=0;entryY=0.25;entryDx=0;entryDy=0;dashed=1;endArrow=block;endFill=1;fillColor=#ffe6cc;strokeColor=#d79b00;" edge="1" parent="1" source="dQS0lUU22sCcIDMKFVP6-7" target="dQS0lUU22sCcIDMKFVP6-8">
          <mxGeometry relative="1" as="geometry" />
        </mxCell>
        <mxCell id="dQS0lUU22sCcIDMKFVP6-7" value="Model" style="rounded=0;whiteSpace=wrap;html=1;fillColor=#ffe6cc;strokeColor=#d79b00;" vertex="1" parent="1">
          <mxGeometry x="140" y="420" width="120" height="60" as="geometry" />
        </mxCell>
        <mxCell id="dQS0lUU22sCcIDMKFVP6-14" style="edgeStyle=orthogonalEdgeStyle;rounded=0;orthogonalLoop=1;jettySize=auto;html=1;exitX=0;exitY=0.75;exitDx=0;exitDy=0;entryX=1;entryY=0.75;entryDx=0;entryDy=0;fillColor=#dae8fc;strokeColor=#6c8ebf;" edge="1" parent="1" source="dQS0lUU22sCcIDMKFVP6-8" target="dQS0lUU22sCcIDMKFVP6-7">
          <mxGeometry relative="1" as="geometry" />
        </mxCell>
        <mxCell id="dQS0lUU22sCcIDMKFVP6-16" style="edgeStyle=orthogonalEdgeStyle;rounded=0;orthogonalLoop=1;jettySize=auto;html=1;exitX=1;exitY=0.75;exitDx=0;exitDy=0;entryX=0;entryY=0.75;entryDx=0;entryDy=0;dashed=1;endArrow=block;endFill=1;fillColor=#dae8fc;strokeColor=#6c8ebf;" edge="1" parent="1" source="dQS0lUU22sCcIDMKFVP6-8" target="dQS0lUU22sCcIDMKFVP6-9">
          <mxGeometry relative="1" as="geometry" />
        </mxCell>
        <mxCell id="dQS0lUU22sCcIDMKFVP6-8" value="ViewModel" style="rounded=0;whiteSpace=wrap;html=1;fillColor=#dae8fc;strokeColor=#6c8ebf;" vertex="1" parent="1">
          <mxGeometry x="354" y="420" width="120" height="60" as="geometry" />
        </mxCell>
        <mxCell id="dQS0lUU22sCcIDMKFVP6-17" style="edgeStyle=orthogonalEdgeStyle;rounded=0;orthogonalLoop=1;jettySize=auto;html=1;exitX=0;exitY=0.25;exitDx=0;exitDy=0;entryX=1;entryY=0.25;entryDx=0;entryDy=0;dashed=1;endArrow=block;endFill=1;fillColor=#d5e8d4;strokeColor=#82b366;" edge="1" parent="1" source="dQS0lUU22sCcIDMKFVP6-9" target="dQS0lUU22sCcIDMKFVP6-8">
          <mxGeometry relative="1" as="geometry" />
        </mxCell>
        <mxCell id="dQS0lUU22sCcIDMKFVP6-9" value="View" style="rounded=0;whiteSpace=wrap;html=1;fillColor=#d5e8d4;strokeColor=#82b366;" vertex="1" parent="1">
          <mxGeometry x="590" y="420" width="120" height="60" as="geometry" />
        </mxCell>
        <mxCell id="dQS0lUU22sCcIDMKFVP6-19" value="callbacks" style="text;html=1;align=center;verticalAlign=middle;resizable=0;points=[];autosize=1;strokeColor=none;fillColor=none;" vertex="1" parent="1">
          <mxGeometry x="275" y="168" width="70" height="30" as="geometry" />
        </mxCell>
        <mxCell id="dQS0lUU22sCcIDMKFVP6-20" value="managers" style="text;html=1;align=center;verticalAlign=middle;resizable=0;points=[];autosize=1;strokeColor=none;fillColor=none;" vertex="1" parent="1">
          <mxGeometry x="270" y="218" width="80" height="30" as="geometry" />
        </mxCell>
        <mxCell id="dQS0lUU22sCcIDMKFVP6-21" value="updates" style="text;html=1;align=center;verticalAlign=middle;resizable=0;points=[];autosize=1;strokeColor=none;fillColor=none;" vertex="1" parent="1">
          <mxGeometry x="500" y="218" width="70" height="30" as="geometry" />
        </mxCell>
        <mxCell id="dQS0lUU22sCcIDMKFVP6-22" value="target/action" style="text;html=1;align=center;verticalAlign=middle;resizable=0;points=[];autosize=1;strokeColor=none;fillColor=none;" vertex="1" parent="1">
          <mxGeometry x="485" y="168" width="90" height="30" as="geometry" />
        </mxCell>
        <mxCell id="dQS0lUU22sCcIDMKFVP6-23" value="callbacks" style="text;html=1;align=center;verticalAlign=middle;resizable=0;points=[];autosize=1;strokeColor=none;fillColor=none;" vertex="1" parent="1">
          <mxGeometry x="270" y="410" width="70" height="30" as="geometry" />
        </mxCell>
        <mxCell id="dQS0lUU22sCcIDMKFVP6-24" value="managers" style="text;html=1;align=center;verticalAlign=middle;resizable=0;points=[];autosize=1;strokeColor=none;fillColor=none;" vertex="1" parent="1">
          <mxGeometry x="274" y="460" width="80" height="30" as="geometry" />
        </mxCell>
        <mxCell id="dQS0lUU22sCcIDMKFVP6-25" value="events" style="text;html=1;align=center;verticalAlign=middle;resizable=0;points=[];autosize=1;strokeColor=none;fillColor=none;" vertex="1" parent="1">
          <mxGeometry x="500" y="408" width="60" height="30" as="geometry" />
        </mxCell>
        <mxCell id="dQS0lUU22sCcIDMKFVP6-26" value="notify state changed" style="text;html=1;align=center;verticalAlign=middle;resizable=0;points=[];autosize=1;strokeColor=none;fillColor=none;" vertex="1" parent="1">
          <mxGeometry x="465" y="458" width="130" height="30" as="geometry" />
        </mxCell>
        <mxCell id="dQS0lUU22sCcIDMKFVP6-29" style="edgeStyle=orthogonalEdgeStyle;rounded=0;orthogonalLoop=1;jettySize=auto;html=1;exitX=0;exitY=0.5;exitDx=0;exitDy=0;entryX=0.5;entryY=1;entryDx=0;entryDy=0;" edge="1" parent="1" source="dQS0lUU22sCcIDMKFVP6-28" target="dQS0lUU22sCcIDMKFVP6-8">
          <mxGeometry relative="1" as="geometry" />
        </mxCell>
        <mxCell id="dQS0lUU22sCcIDMKFVP6-30" style="edgeStyle=orthogonalEdgeStyle;rounded=0;orthogonalLoop=1;jettySize=auto;html=1;exitX=1;exitY=0.5;exitDx=0;exitDy=0;" edge="1" parent="1" source="dQS0lUU22sCcIDMKFVP6-28" target="dQS0lUU22sCcIDMKFVP6-9">
          <mxGeometry relative="1" as="geometry" />
        </mxCell>
        <mxCell id="dQS0lUU22sCcIDMKFVP6-28" value="ViewController&lt;br&gt;&amp;nbsp;(2way binding )&amp;nbsp;" style="rounded=0;whiteSpace=wrap;html=1;" vertex="1" parent="1">
          <mxGeometry x="470" y="540" width="120" height="60" as="geometry" />
        </mxCell>
        <mxCell id="dQS0lUU22sCcIDMKFVP6-31" value="We stil have tiny MVC here í ½í¸‚" style="ellipse;shape=cloud;whiteSpace=wrap;html=1;fontSize=9;" vertex="1" parent="1">
          <mxGeometry x="410" y="610" width="235" height="30" as="geometry" />
        </mxCell>
      </root>
    </mxGraphModel>
  </diagram>
</mxfile>
